<svg xmlns="http://www.w3.org/2000/svg" viewBox="0 0 1440 320">
  <path fill="#47B5FF" fill-opacity="1"
    d="M0,64L26.7,85.3C53.3,107,107,149,160,154.7C213.3,160,267,128,320,128C373.3,128,427,160,480,176C533.3,192,587,192,640,197.3C693.3,203,747,213,800,218.7C853.3,224,907,224,960,208C1013.3,192,1067,160,1120,128C1173.3,96,1227,64,1280,80C1333.3,96,1387,160,1413,192L1440,224L1440,320L1413.3,320C1386.7,320,1333,320,1280,320C1226.7,320,1173,320,1120,320C1066.7,320,1013,320,960,320C906.7,320,853,320,800,320C746.7,320,693,320,640,320C586.7,320,533,320,480,320C426.7,320,373,320,320,320C266.7,320,213,320,160,320C106.7,320,53,320,27,320L0,320Z">
  </path>
</svg>
